<?xml version="1.0" encoding="utf-8"?>
<!-- Generator: Adobe Illustrator 16.0.0, SVG Export Plug-In . SVG Version: 6.00 Build 0)  -->
<!DOCTYPE svg PUBLIC "-//W3C//DTD SVG 1.1//EN" "http://www.w3.org/Graphics/SVG/1.1/DTD/svg11.dtd">
<svg version="1.1" id="圖層_2" xmlns="http://www.w3.org/2000/svg" xmlns:xlink="http://www.w3.org/1999/xlink" x="0px" y="0px"
	 width="368px" height="72px" viewBox="0 0 368 72" enable-background="new 0 0 368 72" xml:space="preserve">
<g>
	<path fill="#C4B19B" d="M360.047,42.232c-0.075-1.004-0.396-2.033-0.964-3.089c0.798,0.027,1.662,0.039,2.586,0.039
		c0.336,0,0.502-0.167,0.502-0.502v-4.825h-4.244v8.107h-3.204v-8.107h-3.976v8.338h-3.127V18.339h7.103v-3.127h-8.03v-1.119
		l-2.124,2.547h0.116v2.973h-4.128v3.204h5.828v2.972h-5.828v3.551h4.939v11.85h-3.28V40.07h-6.522v1.853h-3.167V29.34h4.71v-3.551
		h-5.982v-2.972h5.982v-3.204h-4.17v-1.351l-0.653,0.618c-0.232-0.386-0.582-0.816-1.043-1.293c-0.463-0.476-0.876-0.83-1.235-1.061
		c2.984-2.676,5.274-5.892,6.871-9.65h3.202c2.959,2.677,5.122,5.018,6.484,7.025v-1.853h8.03V6.837h3.204v5.211h5.48
		c-0.979-1.082-2.497-2.239-4.554-3.475l2.005-1.66c2.086,1.082,3.668,2.188,4.749,3.32l-2.047,1.815h2.394v3.164h-8.027v3.127
		h7.372v20.38c0,1.492-0.374,2.47-1.12,2.933C363.434,42.039,362.055,42.232,360.047,42.232 M334.574,16.64h9.804
		c-1.389-2.263-3.14-4.424-5.25-6.483C337.738,12.627,336.221,14.789,334.574,16.64 M335.693,37.136h6.522v-4.785h-6.522V37.136z
		 M350.747,24.669h3.976v-3.282h-3.976V24.669z M350.747,30.922h3.976v-3.319h-3.976V30.922z M357.927,24.669h4.244v-3.282h-4.244
		V24.669z M357.927,30.922h4.244v-3.319h-4.244V30.922z"/>
	<path fill="#C4B19B" d="M207.082,42.271V21.813c-1.107,1.724-2.137,3.14-3.089,4.246c-0.462-1.338-1.055-2.598-1.775-3.782
		c1.595-1.879,3.096-4.163,4.497-6.853c1.401-2.688,2.554-5.488,3.455-8.395l3.318,0.926c-0.899,2.728-1.904,5.263-3.01,7.604
		v26.711H207.082z M236.881,42.426c-4.3-0.439-8.118-1.313-11.465-2.626c-3.191,1.133-7.013,1.995-11.464,2.586
		c-0.412-0.9-1.004-1.763-1.776-2.586c3.783-0.437,7.001-1.029,9.65-1.774c-1.339-0.851-2.471-1.711-3.396-2.586
		c-1.391,0.72-2.767,1.351-4.131,1.892c-0.516-0.901-1.196-1.635-2.046-2.201c3.911-1.26,6.935-2.896,9.07-4.902
		c-0.464-0.179-0.791-0.469-0.982-0.868c-0.195-0.398-0.292-0.958-0.292-1.68v-2.239h2.935v2.239c0,0.386,0.084,0.625,0.251,0.715
		c0.167,0.091,0.546,0.135,1.138,0.135h4.131c0.438,0,0.728-0.09,0.868-0.27c0.141-0.18,0.237-0.605,0.289-1.274
		c0.644,0.361,1.429,0.618,2.356,0.772c-0.103,1.107-0.373,1.846-0.812,2.22c-0.438,0.373-1.196,0.56-2.277,0.56h-3.898
		c-0.412,0.463-0.927,0.952-1.544,1.467h8.877l0.619-0.154l2.199,1.195c-1.313,1.931-3.229,3.59-5.751,4.98
		c2.857,0.745,5.993,1.234,9.418,1.466C238.076,40.289,237.421,41.268,236.881,42.426 M215.921,31.116l-2.2-1.776
		c0.72-0.359,1.441-0.9,2.161-1.621h-3.049v-5.25h3.666v-9.611h6.563c0.024-0.103,0.063-0.256,0.116-0.463
		c0.127-0.54,0.204-0.952,0.23-1.235h-9.38V8.497h23.623v2.664h-10.46c-0.309,0.772-0.542,1.337-0.696,1.698h8.454v9.611h3.474v5.25
		h-2.586c0.772,0.825,1.337,1.518,1.698,2.085l-2.354,1.313c-0.824-1.416-2.199-2.92-4.129-4.517l2.199-1.235
		c0.593,0.489,1.235,1.055,1.93,1.699v-2.47h-8.376c0.901,0.694,1.569,1.312,2.007,1.852l-2.162,1.389
		c-0.876-1.131-2.11-2.186-3.704-3.165l0.116-0.077h-7.104v3.049c0.721-0.721,1.313-1.428,1.775-2.124l2.315,1.274
		C218.738,28.748,217.361,30.189,215.921,31.116 M219.741,16.216h11.852v-1.427h-11.852V16.216z M219.741,19.304h11.852v-1.466
		h-11.852V19.304z M219.741,22.469h11.852v-1.466h-11.852V22.469z M225.647,36.751c1.879-0.771,3.398-1.647,4.555-2.625h-9.031
		C222.303,35.104,223.795,35.979,225.647,36.751"/>
	<path fill="#C4B19B" d="M244.244,21.852c-0.642-0.952-1.439-1.71-2.392-2.277c2.136-1.93,3.203-4.619,3.203-8.067V7.802
		l2.511,0.694c3.962-0.488,6.817-1.016,8.568-1.583l2.277,2.2c-2.678,0.772-6.075,1.339-10.192,1.698v0.812
		c0,0.36-0.012,0.644-0.037,0.849h11.116v2.74h-4.129v4.401h-3.168v-4.401h-4.167C247.27,17.94,246.071,20.153,244.244,21.852
		 M244.9,42.426c-1.106-1.262-2.008-2.149-2.701-2.665c4.889-0.951,8.633-2.16,11.233-3.627l3.28,1.505
		c-1.492,0.9-3.372,1.802-5.635,2.703C248.992,41.189,246.934,41.886,244.9,42.426 M247.063,20.386h25.244v15.632h-25.244V20.386z
		 M250.537,24.863h18.18v-2.2h-18.18V24.863z M250.537,29.301h18.18v-2.276h-18.18V29.301z M250.537,33.778h18.18v-2.315h-18.18
		V33.778z M259.261,20.346c-0.18-0.386-0.497-0.823-0.945-1.312c-0.451-0.49-0.868-0.862-1.254-1.12
		c2.47-1.568,3.704-3.756,3.704-6.563V7.879l2.586,0.618c4.015-0.411,7.077-0.913,9.188-1.505l2.315,2.161
		c-2.959,0.798-6.602,1.351-10.924,1.659v0.696c0,0.412-0.014,0.732-0.038,0.964h12.7v2.74h-5.329v4.478h-3.28v-4.478h-4.67
		C262.593,17.297,261.242,19.009,259.261,20.346 M272.576,42.386c-2.649-1.44-6.099-2.895-10.343-4.36l2.932-1.815
		c4.788,1.595,8.633,3.088,11.543,4.477L272.576,42.386z"/>
	<polygon fill="#C4B19B" points="208.118,59.456 208.118,64.139 206.184,64.139 206.184,59.456 202.639,52.316 204.728,52.316 
		207.15,57.529 209.575,52.316 211.663,52.316 	"/>
	<rect x="211.928" y="62.154" fill="#C4B19B" width="1.983" height="1.984"/>
	<path fill="#C4B19B" d="M219.313,64.26c0,0-0.262-0.056-0.785-0.167s-1.013-0.274-1.472-0.492
		c-0.459-0.216-0.877-0.484-1.256-0.804l1.031-1.553c0.457,0.385,0.967,0.676,1.534,0.874c0.565,0.197,1.166,0.297,1.8,0.297
		c0.792,0,1.406-0.143,1.843-0.424c0.436-0.281,0.654-0.681,0.654-1.194v-0.009c0-0.362-0.098-0.652-0.293-0.866
		c-0.194-0.214-0.45-0.37-0.766-0.47c-0.314-0.103-0.718-0.195-1.21-0.282c-0.017-0.006-0.032-0.009-0.05-0.009
		c-0.016,0-0.032-0.002-0.048-0.007l-0.146-0.024c-0.791-0.13-1.442-0.285-1.952-0.463c-0.512-0.179-0.942-0.499-1.302-0.959
		c-0.356-0.462-0.535-1.114-0.535-1.96V55.74c0-0.748,0.168-1.388,0.503-1.919c0.336-0.532,0.822-0.936,1.465-1.211
		c0.64-0.278,1.407-0.415,2.308-0.415c0.423,0,0.848,0.047,1.273,0.142c0.424,0.095,0.843,0.234,1.252,0.416
		c0.409,0.181,0.806,0.406,1.19,0.678l-0.942,1.602c-0.455-0.324-0.92-0.572-1.392-0.739c-0.47-0.169-0.933-0.253-1.382-0.253
		c-0.748,0-1.326,0.137-1.735,0.409c-0.409,0.275-0.615,0.662-0.615,1.16v0.009c0,0.374,0.106,0.669,0.318,0.886
		c0.211,0.217,0.477,0.375,0.792,0.476c0.317,0.1,0.761,0.207,1.33,0.321c0.021,0.005,0.042,0.01,0.061,0.011
		c0.019,0.003,0.039,0.008,0.061,0.013c0.026,0.006,0.058,0.012,0.091,0.017c0.032,0.006,0.062,0.011,0.089,0.016
		c0.732,0.147,1.343,0.323,1.835,0.53c0.487,0.204,0.899,0.536,1.23,0.99c0.331,0.456,0.494,1.076,0.494,1.862v0.017
		c0,0.737-0.173,1.369-0.519,1.895c-0.348,0.525-0.851,0.926-1.514,1.199c-0.659,0.273-1.457,0.41-2.39,0.41H219.313z"/>
	<path fill="#C4B19B" d="M236.382,64.26c0,0-0.315-0.178-0.947-0.533c-0.632-0.354-1.117-0.862-1.456-1.524
		c-0.338-0.66-0.507-1.443-0.507-2.349v-3.244c0-0.905,0.169-1.688,0.507-2.35c0.339-0.66,0.824-1.172,1.456-1.528
		c0.632-0.358,1.376-0.536,2.232-0.536c0.71,0,1.353,0.151,1.932,0.456c0.576,0.303,1.056,0.74,1.438,1.313
		c0.382,0.572,0.644,1.247,0.783,2.028h-1.999c-0.098-0.38-0.251-0.712-0.464-0.996c-0.213-0.285-0.462-0.503-0.752-0.655
		c-0.29-0.151-0.604-0.227-0.938-0.227c-0.451,0-0.839,0.102-1.167,0.304c-0.329,0.204-0.581,0.491-0.761,0.866
		c-0.179,0.374-0.27,0.816-0.27,1.325v3.244c0,0.509,0.091,0.95,0.27,1.326c0.18,0.374,0.432,0.66,0.761,0.86
		c0.328,0.2,0.716,0.302,1.167,0.302c0.34,0,0.656-0.074,0.948-0.22c0.288-0.147,0.54-0.361,0.75-0.642
		c0.212-0.282,0.364-0.622,0.456-1.016h1.999c-0.146,0.779-0.41,1.455-0.791,2.027c-0.383,0.571-0.863,1.01-1.44,1.313
		c-0.577,0.304-1.219,0.455-1.922,0.455H236.382z"/>
	<path fill="#C4B19B" d="M244.685,52.316h1.943v11.822h-1.943V52.316z M245.718,57.366h6.723v1.861h-6.723V57.366z M251.278,52.316
		h1.944v11.822h-1.944V52.316z"/>
	<path fill="#C4B19B" d="M259.958,52.316h1.413l4.439,11.822h-2.09l-3.056-8.806l-3.058,8.806h-2.09L259.958,52.316z
		 M257.607,60.032h6.221v1.863h-6.221V60.032z"/>
	<path fill="#C4B19B" d="M266.318,52.316h8.504v1.862h-8.504V52.316z M269.603,53.283h1.935v10.855h-1.935V53.283z"/>
	<path fill="#C4B19B" d="M276.389,52.316h8.504v1.862h-8.504V52.316z M279.673,53.283h1.935v10.855h-1.935V53.283z"/>
	<path fill="#C4B19B" d="M287.185,52.316h1.942v11.822h-1.942V52.316z M287.99,52.316h6.95v1.862h-6.95V52.316z M287.99,57.341
		h6.056v1.854h-6.056V57.341z M287.99,62.275h6.95v1.863h-6.95V62.275z"/>
	<path fill="#C4B19B" d="M297.97,52.316h1.943v11.822h-1.943V52.316z M298.882,62.275h6.845v1.863h-6.845V62.275z"/>
	<path fill="#C4B19B" d="M314.445,52.316h1.943v11.822h-1.943V52.316z M315.356,62.275h6.845v1.863h-6.845V62.275z"/>
	<path fill="#C4B19B" d="M326.271,63.72c-0.639-0.36-1.135-0.87-1.487-1.529c-0.352-0.657-0.53-1.421-0.53-2.288v-3.349
		c0-0.868,0.179-1.631,0.53-2.29c0.353-0.657,0.849-1.168,1.487-1.528c0.641-0.36,1.38-0.54,2.22-0.54
		c0.841,0,1.578,0.18,2.221,0.54c0.639,0.36,1.133,0.871,1.486,1.528c0.354,0.659,0.528,1.422,0.528,2.29v3.349
		c0,0.867-0.175,1.631-0.528,2.288c-0.354,0.659-0.848,1.169-1.486,1.529c-0.643,0.359-1.38,0.54-2.221,0.54
		C327.651,64.26,326.912,64.079,326.271,63.72 M329.667,62.04c0.338-0.195,0.6-0.473,0.784-0.833
		c0.184-0.36,0.275-0.776,0.275-1.248v-3.462c0-0.473-0.092-0.888-0.275-1.249c-0.185-0.36-0.446-0.638-0.784-0.834
		c-0.339-0.195-0.731-0.293-1.176-0.293s-0.836,0.098-1.174,0.293c-0.34,0.196-0.601,0.474-0.786,0.834
		c-0.183,0.361-0.277,0.776-0.277,1.249v3.462c0,0.472,0.095,0.888,0.277,1.248c0.186,0.36,0.446,0.638,0.786,0.833
		c0.338,0.194,0.729,0.293,1.174,0.293S329.328,62.234,329.667,62.04"/>
	<path fill="#C4B19B" d="M338.892,52.316h1.413l4.439,11.822h-2.09l-3.056-8.806l-3.058,8.806h-2.088L338.892,52.316z
		 M336.541,60.032h6.22v1.863h-6.22V60.032z"/>
	<polygon fill="#C4B19B" points="347.203,52.316 349.317,52.316 354.406,61.415 354.212,61.626 354.212,52.316 356.1,52.316 
		356.1,64.129 353.968,64.129 348.895,55.171 349.092,54.96 349.092,64.129 347.203,64.129 	"/>
	<path fill="#C4B19B" d="M362.477,64.26c0,0-0.264-0.056-0.786-0.167c-0.524-0.111-1.013-0.274-1.473-0.492
		c-0.458-0.216-0.877-0.484-1.254-0.804l1.031-1.553c0.456,0.385,0.967,0.676,1.533,0.874c0.565,0.197,1.166,0.297,1.799,0.297
		c0.792,0,1.407-0.143,1.843-0.424c0.438-0.281,0.655-0.681,0.655-1.194v-0.009c0-0.362-0.098-0.652-0.292-0.866
		c-0.195-0.214-0.452-0.37-0.767-0.47c-0.313-0.103-0.717-0.195-1.209-0.282c-0.018-0.006-0.032-0.009-0.05-0.009
		c-0.017,0-0.033-0.002-0.047-0.007l-0.148-0.024c-0.79-0.13-1.441-0.285-1.952-0.463c-0.509-0.179-0.942-0.499-1.299-0.959
		c-0.358-0.462-0.535-1.114-0.535-1.96V55.74c0-0.748,0.166-1.388,0.503-1.919c0.334-0.532,0.822-0.936,1.464-1.211
		c0.638-0.278,1.406-0.415,2.308-0.415c0.421,0,0.847,0.047,1.272,0.142s0.844,0.234,1.253,0.416
		c0.408,0.181,0.804,0.406,1.191,0.678l-0.944,1.602c-0.455-0.324-0.92-0.572-1.392-0.739c-0.47-0.169-0.932-0.253-1.381-0.253
		c-0.748,0-1.327,0.137-1.736,0.409c-0.408,0.275-0.613,0.662-0.613,1.16v0.009c0,0.374,0.106,0.669,0.316,0.886
		c0.211,0.217,0.476,0.375,0.793,0.476c0.316,0.1,0.761,0.207,1.329,0.321c0.021,0.005,0.042,0.01,0.062,0.011
		c0.02,0.003,0.039,0.008,0.06,0.013c0.027,0.006,0.058,0.012,0.091,0.017c0.032,0.006,0.063,0.011,0.088,0.016
		c0.734,0.147,1.345,0.323,1.835,0.53c0.49,0.204,0.9,0.536,1.231,0.99c0.331,0.456,0.494,1.076,0.494,1.862v0.017
		c0,0.737-0.173,1.369-0.519,1.895c-0.348,0.525-0.851,0.926-1.513,1.199c-0.661,0.273-1.458,0.41-2.392,0.41H362.477z"/>
	<path fill="#CC924B" d="M297.743,24.386c0.278,0.044,0.811-0.007,1.601-0.153c2.746-0.526,5.902-0.804,9.467-0.833
		c0.41,0,0.658-0.094,0.746-0.285c0.087-0.191,0.058-0.49-0.088-0.899c-0.146-0.38-1.577-0.497-4.296-0.351
		c-2.776,0.146-5.245,0.482-7.407,1.008c-0.556,0.116-0.746,0.453-0.569,1.008C297.283,24.175,297.466,24.343,297.743,24.386"/>
	<path fill="#CC924B" d="M301.887,32.342c0.174-0.03,0.218-0.329,0.131-0.899c-0.088-0.569-0.235-0.899-0.439-0.985
		c-0.35-0.146-1.409,0.051-3.178,0.591c-1.769,0.54-2.711,0.913-2.827,1.117c-0.147,0.527-0.117,0.893,0.088,1.097
		C298.057,32.795,300.132,32.489,301.887,32.342"/>
	<path fill="#CC924B" d="M301.974,34.753c-0.614-0.175-1.855-0.131-3.727,0.131c-1.87,0.263-2.82,0.527-2.849,0.789
		c-0.029,0.556-0.131,1.068-0.307,1.536c-0.061,0.175-0.052,0.299,0.022,0.372c0.071,0.073,0.4,0.035,0.985-0.11
		c0.672-0.204,2.411-0.511,5.217-0.92c0.32-0.059,0.576-0.358,0.767-0.899C302.272,35.111,302.236,34.811,301.974,34.753"/>
	<path fill="#CC924B" d="M288.512,11.387c-0.003,0.011-0.007,0.023-0.011,0.035c0.027-0.009,0.055-0.018,0.083-0.025
		C288.56,11.393,288.539,11.393,288.512,11.387"/>
	<path fill="#CC924B" d="M324.129,27.782c0.146-0.593-0.202-0.497-0.189-0.943c0.629-1.627-0.617-3.308,0-4.71
		c-0.027-0.406-0.669-0.981-0.377-1.696c-0.334-0.419-0.869-0.638-0.942-1.32c-0.233-0.609,0.61-0.145,0.378-0.753
		c-0.161-0.311-0.313-0.633-0.465-0.96c-0.131,0.175-0.318,0.363-0.57,0.565c-0.82,0.644-1.403,1.374-1.755,2.192
		c-0.115,0.292-0.445,0.643-0.986,1.052c-0.539,0.409-0.943,0.599-1.205,0.57c-0.556-0.088-0.746-0.556-0.57-1.403
		c0.177-0.848,0.029-1.476-0.438-1.886c-0.468-0.409-1.769-0.701-3.902-0.876c-3.067,0-4.807-0.015-5.215-0.043
		c-2.776-0.175-5.377-0.102-7.803,0.219c-1.9,0.263-4.092,0.745-6.576,1.446c-0.818,0.234-1.343,0.454-1.578,0.658
		c-0.175,0.145-0.277,0.409-0.307,0.789c-0.058,0.906-0.498,1.753-1.314,2.542c-0.731,0.73-1.359,1.067-1.885,1.008
		c-0.438-0.029-0.687-0.351-0.746-0.963c-0.059-0.527,0.03-1.111,0.264-1.755c0.468-1.343,0.453-2.396-0.045-3.155
		c-0.35-0.525-0.408-0.957-0.174-1.294c0.232-0.335,0.585-0.459,1.051-0.372c0.702,0.118,1.506,0.059,2.412-0.176
		c1.052-0.263,1.929-0.395,2.629-0.395c0.935,0,1.681-0.073,2.236-0.218c1.111-0.292,2.294-0.468,3.55-0.527
		c1.198-0.057,2.038-0.343,2.521-0.854c0.482-0.51,0.768-1.425,0.854-2.74c0.029-0.35,0.146-0.716,0.351-1.096
		c0.203-0.379,0.423-0.555,0.657-0.526c0.176,0,0.425,0.381,0.744,1.14c0.353,0.848,0.527,1.71,0.527,2.586
		c0.059,1.024,1.241,1.578,3.55,1.666c3.245,0,5.802,0.161,7.672,0.482c1.986,0.321,3.434,0.401,4.34,0.242
		c0.475-0.084,0.863-0.097,1.17-0.041c-0.267-0.561-0.546-1.121-0.879-1.647c0.048-0.547-0.249-0.965-0.565-1.319
		c-0.173-0.477-0.197-0.875-0.565-1.13c-0.099-0.71-0.835-0.879-1.132-1.508c-0.218-0.271-0.81-0.17-0.753-0.565
		c-0.121-0.15-0.592-0.067-0.753-0.189c0.151-1.441-3.427-2.12-3.959-3.391c-1.793-0.231-2.803-0.992-4.712-0.943
		c-0.706-0.703-1.125-0.263-1.882-0.566c-4.375-0.433-9,0.132-13.004,1.885c-0.249,0.271-0.496,0.555-0.942,0.565
		c-0.281,0.283-0.337,0.794-0.754,0.942c-1.138,0.572-2.005,1.858-3.016,2.45c-0.094,0.208-0.101,0.418-0.207,0.521
		c0.229-0.023,0.476-0.015,0.743,0.046c0.817,0.205,1.973,0.263,3.463,0.175c4.266-0.145,6.721,0,7.363,0.439
		c0.38,0.379,0.512,0.657,0.395,0.833c-0.176,0.205-0.759,0.366-1.753,0.482c-0.584,0.059-1.666,0.248-3.244,0.569
		c-0.554,0.118-1.286,0.19-2.192,0.219c-1.256,0.058-2.528,0.322-3.813,0.789c-0.408,0.146-0.898-0.007-1.468-0.46
		c-0.569-0.452-0.869-0.84-0.897-1.162c-0.007-0.083,0-0.156,0-0.234c-0.543,0.598-1.073,1.201-1.026,2.116
		c-0.384,0.055-0.37,0.509-0.753,0.565c0.12,1.701-1.404,2.516-0.943,3.958c-0.799,0.609-0.168,1.672-0.941,2.45
		c0.765,0.803,0.022,1.716,0,2.638c0.153,1.176,0.174,2.558,0.378,3.768c-0.007,0.023-0.136,0.23-0.178,0.213
		c0.39,0.777,0.365,0.792,0.176,1.672c0.7,0.877,0.084,0.905,0.189,1.695c0.52,0.548,0.885,1.252,0.753,2.45
		c0.37,0.07-0.139,0.5,0.566,0.377c-0.09,0.71,0.469,0.243,0.565,1.131c0.365-0.083,0.115,0.193,0.188,0.376
		c0.573,0.492,0.901,1.559,1.509,1.885c0.062,0.052-0.06,0.318,0,0.376c1.992,1.026,0.441,2.149,4.145,3.392
		c-0.204,1.023,1.778,1.443,2.45,1.319c0.012,0.505,0.735,0.42,0.754,0.754c0.024,0.484,0.538,0.202,0.564,0.565
		c0.578,0.139,0.556-0.325,1.131-0.188c0.456,0.512,1.268,0.243,1.885,0.378c1.261,0.735,2.923,0.295,4.147,0.941
		c0.606-0.789,1.845-0.064,2.636-0.566c0.147,0,0.185,0.188,0.191,0.189c1.675,0.229,2.025-0.982,3.391-0.755
		c0.172-0.009,0.139-0.176,0.188-0.188c0.963,0.015,1.401-0.602,2.262-0.754c0.218-0.51,0.857-0.307,1.133-0.564
		c0.53-0.157,0.487,0.265,0.939,0.187c0.562-0.559,1.352-0.717,1.695-1.319c0.477-0.224,1.174-0.209,1.509-0.753
		c0.433-0.53,1.034-0.938,1.696-1.318c0.475-0.594,0.636-1.5,1.507-1.696c-0.071-0.638,0.328-0.805,0.567-1.131
		c0.349-0.279,0.282-0.975,0.941-0.942v-1.319c0.76-0.816,1.396-2.09,1.319-3.203c0.305-0.236,0.532-0.798,0.753-0.942
		c0.238-0.583-0.102-0.705,0.188-0.942c0.055-0.045-0.032-0.309,0-0.376C324.512,29.488,323.885,28.034,324.129,27.782
		 M308.022,11.696c0.233-0.116,0.569-0.145,1.008-0.087c0.761,0.087,1.49,0.087,2.191,0c0.79-0.116,1.754-0.132,2.893-0.044
		c1.054,0.06,2.119,0.03,3.201-0.087c0.847-0.116,1.483-0.072,1.906,0.132c0.424,0.205,0.62,0.555,0.593,1.052
		c-0.06,1.315-1.097,1.782-3.113,1.403c-2.688-0.468-4.909-0.541-6.662-0.22c-1.081,0.263-1.828-0.043-2.235-0.92
		C307.48,12.341,307.554,11.931,308.022,11.696 M293.206,21.121c0.146-0.321,0.482-0.379,1.008-0.174
		c0.585,0.233,1.257,0.19,2.017-0.132c1.783-0.702,4.018-1.154,6.707-1.359c2.745-0.204,5.085-0.102,7.014,0.307
		c0.906,0.204,1.855,0.204,2.849,0c0.643-0.116,1.081,0.037,1.314,0.459c0.234,0.425,0.046,0.899-0.568,1.426
		c-0.762,0.701-1.228,1.49-1.403,2.367c-0.087,0.467-0.27,0.84-0.548,1.118c-0.277,0.278-0.709,0.504-1.294,0.679
		c-0.877,0.264-1.972,0.249-3.286-0.044c-1.402-0.321-3.464-0.292-6.182,0.089c-2.366,0.321-4.092,0.716-5.172,1.183
		c-0.789,0.321-1.381,0.328-1.775,0.022c-0.394-0.308-0.445-0.708-0.153-1.205c0.584-1.053,0.569-2.061-0.044-3.025
		C293.192,22.071,293.03,21.501,293.206,21.121 M316.899,31.094c-0.687,0.628-1.206,1.628-1.558,3.001
		c-0.321,1.287-0.364,2.426-0.131,3.419c0.146,0.644,0.176,1.103,0.088,1.38c-0.088,0.28-0.293,0.433-0.613,0.462
		c-1.112,0.058-3.215-0.131-6.313-0.571c-2.718-0.437-5.61-0.364-8.678,0.221c-2.164,0.438-4.12,0.685-5.875,0.745
		c-0.497,0.028-1.125,0.233-1.885,0.613c-0.643,0.32-1.037,0.234-1.184-0.263c-0.174-0.584,0.06-1.419,0.702-2.501
		c0.584-0.992,0.935-1.808,1.052-2.453c0.176-0.993-0.043-1.855-0.657-2.586c-0.819-1.051-1.052-1.876-0.701-2.476
		c0.351-0.598,0.817-0.84,1.402-0.724c1.14,0.41,2.645,0.286,4.516-0.373c1.868-0.657,4.572-1.088,8.108-1.292
		c3.711-0.204,6.547-0.044,8.505,0.482c1.021,0.263,1.855,0.38,2.498,0.352c0.848-0.059,1.353,0.197,1.514,0.766
		C317.849,29.865,317.585,30.465,316.899,31.094"/>
	<path fill="#CC924B" d="M312.187,34.973c-3.127-0.379-5.376-0.423-6.75-0.132c-0.117,0.03-0.176,0.249-0.176,0.657
		c0,0.41,0.059,0.629,0.176,0.657c2.104,0.438,4.367,0.425,6.793-0.043c0.263-0.058,0.411-0.255,0.44-0.593
		C312.697,35.184,312.537,35.002,312.187,34.973"/>
	<path fill="#CC924B" d="M311.002,30.281c-1.724-0.29-3.229-0.377-4.515-0.261c-0.613,0.058-1.037,0.423-1.271,1.097
		c-0.175,0.496-0.116,0.816,0.176,0.962c0.174,0.087,0.496,0.119,0.964,0.087c1.255-0.115,2.571-0.057,3.944,0.176
		c0.877,0.147,1.638,0.102,2.279-0.132c0.643-0.232,0.949-0.599,0.92-1.094C313.472,30.85,312.641,30.574,311.002,30.281"/>
	<path fill="#CC924B" d="M81.786,32.593h19.621V17.132H79.923v-6.271h49.363v6.271h-21.732v15.461h19.993v6.146h-19.993v17.821
		h22.974v6.209H78.433v-6.209h22.974V38.739H81.786V32.593z M115.439,41.1h6.146c1.407,4.389,2.462,8.714,3.168,12.978h-6.148
		C117.985,50.31,116.93,45.985,115.439,41.1"/>
	<path fill="#CC924B" d="M160.457,8.625h6.396v48.246h11.92c1.903-0.042,2.877-1.2,2.919-3.478V13.842h6.333v41.104
		c-0.084,4.967-2.402,7.657-6.954,8.072h-33.53c-4.719-0.747-7.41-3.686-8.072-8.818V13.778h6.084l-0.063,39.244
		c0.414,2.357,1.531,3.641,3.353,3.849h11.612V8.625z"/>
	<path fill-rule="evenodd" clip-rule="evenodd" fill="#CC924B" d="M62.517,33.176c0.125,1.106,0.194,2.228,0.194,3.366
		c0,16.485-13.364,29.85-29.849,29.85S3.013,53.027,3.013,36.542c0-4.451,0.981-8.672,2.729-12.465l-1.634-0.263
		c-1.725,3.893-2.692,8.196-2.692,12.728c0,17.367,14.079,31.445,31.446,31.445c17.367,0,31.445-14.078,31.445-31.445
		c0-1.048-0.054-2.083-0.153-3.103L62.517,33.176z"/>
	<path fill-rule="evenodd" clip-rule="evenodd" fill="#CC924B" d="M7.592,30.604c0,0,4.031-2.084,10.161-2.075
		c5.597,0.308,11.542,2.567,17.052,4.671c2.339,0.888,4.612,1.748,6.777,2.433c7.347,2.327,13.032,1.699,16.55,0.743
		c-1.797,0.928-8.826,3.948-19.557,0.562C29.247,33.981,17.385,27.419,7.592,30.604"/>
	<path fill-rule="evenodd" clip-rule="evenodd" fill="#CC924B" d="M11.285,38.002c0,0,3.585-2.084,9.037-2.075
		c4.979,0.309,10.267,2.566,15.169,4.67c2.08,0.889,4.101,1.748,6.027,2.434c6.535,2.325,11.592,1.697,14.72,0.742
		c-1.599,0.927-7.85,3.948-17.394,0.561C30.546,41.38,19.995,34.817,11.285,38.002"/>
	<path fill-rule="evenodd" clip-rule="evenodd" fill="#CC924B" d="M13.179,28.278c0,0,8.923-12.152,11.979-8.851
		c3.055,3.291,2.881,4.459,6.419,1.119c3.537-3.339,4.321-6.678,5.799-6.447c1.48,0.231,6.42,12.276,7.542,10.414
		c1.131-1.862,1.953-5.038,3.238-3.879c1.287,1.167,8.083,15.606,8.083,15.606c-1.044-1.757-1.208-2.057-2.523-3.533
		c-0.996-1.11-3.538-2.625-3.538-2.625s2.175,0.646,2.253,0.145l-0.185-0.28c-0.831-0.724-4.089-2.152-4.089-2.152
		s0.754-0.01,1.393-0.212c0.647-0.212,0.734-0.28-0.251-0.907c-0.465-0.3-0.339-0.561-0.087-0.763
		c-0.667-0.753-1.238-1.226-1.595-1.226c-1.132,0.009-2.167,6.862-5.666,0.425c-2.223-4.083-4.863-6.293-6.071-5.704
		c-1.208,0.578,2.098,2.905,2.098,2.905s-8.749,0.077-6.844,0.743c1.904,0.657,4.079,0.811,4.079,0.811s-1.459,0.164-3.122,0.493
		c-2.195,0.434-5.926,2.402-7.493,2.209c-1.392-0.174-1.836-1.274-0.348-1.958c2.6-1.208,0.966-2.646-0.31-2.144
		c-1.286,0.512-1.75,1.129-1.75,1.129s2.619-3.59,0.87-2.973C21.097,21.329,15.5,26.222,13.179,28.278"/>
	<path fill="#CC924B" d="M22.144,7.612c-0.535-0.132-1.028-0.366-1.471-0.666c-0.924-0.624-1.616-1.562-1.907-2.668
		c-0.309,1.175-1.07,2.162-2.08,2.781c-0.398,0.244-0.833,0.437-1.299,0.553c0.466,0.117,0.9,0.31,1.299,0.555
		c1.01,0.619,1.771,1.606,2.08,2.782c0.291-1.108,0.983-2.046,1.907-2.67C21.116,7.98,21.609,7.747,22.144,7.612"/>
	<path fill="#CC924B" d="M15.852,15.666c-1.143-0.284-2.196-0.783-3.142-1.424c-1.974-1.332-3.453-3.334-4.075-5.7
		c-0.66,2.51-2.285,4.618-4.442,5.94c-0.854,0.523-1.78,0.935-2.777,1.183c0.997,0.25,1.923,0.661,2.777,1.185
		c2.157,1.322,3.782,3.431,4.442,5.943c0.622-2.367,2.101-4.371,4.075-5.704C13.656,16.45,14.708,15.951,15.852,15.666"/>
</g>
</svg>
