<?xml version="1.0" encoding="utf-8"?>
<!-- Generator: Adobe Illustrator 16.0.0, SVG Export Plug-In . SVG Version: 6.00 Build 0)  -->
<!DOCTYPE svg PUBLIC "-//W3C//DTD SVG 1.1//EN" "http://www.w3.org/Graphics/SVG/1.1/DTD/svg11.dtd">
<svg version="1.1" id="圖層_1" xmlns="http://www.w3.org/2000/svg" xmlns:xlink="http://www.w3.org/1999/xlink" x="0px" y="0px"
	 width="368px" height="72px" viewBox="0 0 368 72" enable-background="new 0 0 368 72" xml:space="preserve">
<path fill="#4D4D4D" d="M359.867,42.322c-0.075-1.006-0.398-2.034-0.964-3.089c0.796,0.027,1.659,0.038,2.584,0.038
	c0.334,0,0.503-0.166,0.503-0.5v-4.823h-4.244v8.103h-3.202v-8.103h-3.975v8.333h-3.125V18.437h7.1v-3.125h-8.026v-1.119
	l-2.123,2.545h0.116v2.971h-4.128v3.203h5.827v2.97h-5.827v3.551h4.939v11.845h-3.28V40.16h-6.52v1.851h-3.167V29.434h4.708v-3.551
	h-5.979v-2.97h5.979V19.71h-4.166v-1.35l-0.654,0.617c-0.232-0.384-0.58-0.814-1.043-1.291c-0.462-0.476-0.875-0.831-1.234-1.062
	c2.982-2.674,5.271-5.889,6.867-9.645h3.202c2.958,2.676,5.118,5.016,6.482,7.022v-1.851h8.026V6.941h3.202v5.208h5.479
	c-0.978-1.081-2.496-2.239-4.553-3.474l2.005-1.659c2.085,1.08,3.665,2.186,4.744,3.318l-2.043,1.814h2.393v3.163h-8.024v3.125
	h7.369v20.372c0,1.491-0.373,2.471-1.118,2.933C363.251,42.128,361.873,42.322,359.867,42.322 M334.404,16.739h9.798
	c-1.388-2.261-3.138-4.422-5.247-6.481C337.566,12.727,336.048,14.888,334.404,16.739 M335.522,37.228h6.52v-4.784h-6.52V37.228z
	 M350.569,24.766h3.975v-3.281h-3.975V24.766z M350.569,31.016h3.975v-3.319h-3.975V31.016z M357.746,24.766h4.243v-3.281h-4.243
	V24.766z M357.746,31.016h4.243v-3.319h-4.243V31.016z"/>
<path fill="#4D4D4D" d="M206.964,42.359V21.91c-1.107,1.724-2.137,3.138-3.087,4.244c-0.462-1.338-1.055-2.597-1.775-3.781
	c1.593-1.877,3.093-4.16,4.496-6.849c1.401-2.687,2.551-5.486,3.452-8.391l3.318,0.925c-0.898,2.727-1.905,5.261-3.009,7.601v26.7
	H206.964z M236.749,42.514c-4.297-0.438-8.114-1.312-11.459-2.622c-3.189,1.128-7.009,1.992-11.458,2.583
	c-0.412-0.899-1.005-1.761-1.776-2.583c3.782-0.438,6.997-1.028,9.647-1.775c-1.34-0.851-2.471-1.712-3.396-2.586
	c-1.391,0.72-2.766,1.351-4.13,1.892c-0.516-0.902-1.195-1.634-2.044-2.2c3.909-1.261,6.932-2.894,9.067-4.901
	c-0.465-0.18-0.792-0.468-0.982-0.869c-0.195-0.398-0.293-0.957-0.293-1.679v-2.237h2.934v2.237c0,0.386,0.085,0.625,0.25,0.715
	c0.169,0.09,0.547,0.134,1.138,0.134h4.13c0.438,0,0.726-0.09,0.867-0.269c0.143-0.18,0.238-0.604,0.29-1.274
	c0.644,0.361,1.429,0.617,2.355,0.772c-0.103,1.107-0.374,1.846-0.812,2.218c-0.437,0.374-1.195,0.559-2.276,0.559h-3.897
	c-0.412,0.464-0.927,0.953-1.544,1.467h8.874l0.619-0.154l2.197,1.195c-1.312,1.93-3.228,3.588-5.747,4.979
	c2.856,0.747,5.99,1.233,9.414,1.465C237.944,40.378,237.29,41.357,236.749,42.514 M215.799,31.209l-2.199-1.775
	c0.721-0.36,1.44-0.901,2.161-1.621h-3.05v-5.247h3.666v-9.607h6.561c0.026-0.103,0.063-0.257,0.116-0.464
	c0.129-0.54,0.205-0.951,0.231-1.234h-9.377V8.598h23.613v2.663h-10.456c-0.308,0.772-0.54,1.337-0.696,1.698h8.45v9.607h3.474
	v5.247h-2.585c0.772,0.824,1.337,1.519,1.696,2.084l-2.354,1.313c-0.823-1.415-2.197-2.919-4.125-4.516l2.198-1.234
	c0.591,0.489,1.233,1.055,1.927,1.698v-2.47h-8.371c0.901,0.695,1.568,1.312,2.007,1.853l-2.161,1.388
	c-0.875-1.13-2.109-2.185-3.704-3.163l0.116-0.078h-7.1v3.048c0.72-0.72,1.311-1.428,1.774-2.122l2.313,1.273
	C218.616,28.843,217.239,30.283,215.799,31.209 M219.618,16.315h11.846v-1.428h-11.846V16.315z M219.618,19.402h11.846v-1.466
	h-11.846V19.402z M219.618,22.566h11.846v-1.466h-11.846V22.566z M225.521,36.842c1.879-0.771,3.396-1.645,4.553-2.624h-9.027
	C222.179,35.197,223.67,36.071,225.521,36.842"/>
<path fill="#4D4D4D" d="M244.111,21.948c-0.643-0.95-1.439-1.709-2.391-2.275c2.136-1.929,3.201-4.616,3.201-8.063V7.905l2.51,0.693
	c3.959-0.488,6.813-1.015,8.563-1.581l2.276,2.198c-2.675,0.772-6.071,1.339-10.187,1.699v0.81c0,0.36-0.011,0.644-0.037,0.849
	h11.111v2.739h-4.127v4.398h-3.166v-4.398H247.7C247.135,18.039,245.938,20.251,244.111,21.948 M244.767,42.514
	c-1.105-1.261-2.007-2.147-2.698-2.662c4.885-0.952,8.629-2.16,11.228-3.627l3.278,1.505c-1.491,0.901-3.372,1.8-5.632,2.701
	C248.857,41.279,246.8,41.974,244.767,42.514 M246.928,20.483h25.234v15.626h-25.234V20.483z M250.4,24.958h18.174V22.76H250.4
	V24.958z M250.4,29.396h18.174V27.12H250.4V29.396z M250.4,33.871h18.174v-2.315H250.4V33.871z M259.12,20.444
	c-0.18-0.386-0.495-0.823-0.946-1.311c-0.449-0.49-0.866-0.862-1.252-1.12c2.469-1.569,3.704-3.756,3.704-6.561V7.981l2.583,0.617
	c4.015-0.41,7.075-0.911,9.185-1.504l2.316,2.161c-2.96,0.797-6.601,1.35-10.922,1.659v0.695c0,0.411-0.014,0.732-0.037,0.964
	h12.694v2.739h-5.326v4.475h-3.279v-4.475h-4.668C262.451,17.396,261.102,19.107,259.12,20.444 M272.433,42.475
	c-2.651-1.441-6.097-2.894-10.341-4.358l2.932-1.814c4.785,1.594,8.629,3.087,11.537,4.475L272.433,42.475z"/>
<polygon fill="#4D4D4D" points="208.001,59.538 208.001,64.219 206.066,64.219 206.066,59.538 202.522,52.402 204.611,52.402 
	207.032,57.612 209.455,52.402 211.544,52.402 "/>
<rect x="211.808" y="62.236" fill="#4D4D4D" width="1.981" height="1.982"/>
<path fill="#4D4D4D" d="M219.191,64.339c0,0-0.265-0.055-0.787-0.166s-1.012-0.275-1.471-0.493
	c-0.457-0.217-0.875-0.485-1.255-0.803l1.032-1.551c0.454,0.382,0.966,0.676,1.533,0.872c0.564,0.197,1.165,0.296,1.798,0.296
	c0.792,0,1.407-0.141,1.841-0.421c0.438-0.284,0.655-0.682,0.655-1.195v-0.009c0-0.363-0.097-0.652-0.292-0.866
	s-0.45-0.37-0.766-0.469c-0.313-0.104-0.718-0.195-1.21-0.282c-0.017-0.006-0.032-0.007-0.048-0.007
	c-0.017,0-0.034-0.002-0.049-0.008l-0.146-0.025c-0.79-0.131-1.442-0.285-1.952-0.464c-0.509-0.178-0.942-0.498-1.298-0.958
	c-0.359-0.461-0.536-1.114-0.536-1.96v-0.007c0-0.748,0.166-1.388,0.504-1.92c0.334-0.531,0.821-0.935,1.462-1.209
	c0.64-0.276,1.408-0.414,2.307-0.414c0.424,0,0.847,0.047,1.272,0.143c0.427,0.094,0.843,0.231,1.252,0.413s0.804,0.407,1.19,0.678
	l-0.942,1.602c-0.455-0.324-0.92-0.571-1.392-0.738c-0.469-0.17-0.931-0.252-1.381-0.252c-0.748,0-1.324,0.135-1.733,0.409
	c-0.411,0.274-0.617,0.659-0.617,1.157v0.008c0,0.376,0.107,0.671,0.32,0.888c0.211,0.219,0.475,0.372,0.791,0.475
	c0.318,0.101,0.761,0.209,1.33,0.321c0.02,0.006,0.04,0.01,0.06,0.012s0.04,0.008,0.062,0.014c0.025,0.006,0.057,0.012,0.089,0.016
	c0.032,0.006,0.063,0.01,0.088,0.016c0.733,0.146,1.346,0.324,1.835,0.528c0.489,0.207,0.899,0.538,1.23,0.99
	c0.331,0.458,0.495,1.077,0.495,1.862v0.016c0,0.736-0.174,1.368-0.519,1.894c-0.348,0.526-0.85,0.926-1.511,1.2
	c-0.662,0.272-1.458,0.409-2.392,0.409H219.191z"/>
<path fill="#4D4D4D" d="M236.252,64.339c0,0-0.315-0.178-0.948-0.532c-0.631-0.355-1.115-0.862-1.454-1.522
	c-0.339-0.662-0.508-1.446-0.508-2.351v-3.241c0-0.905,0.169-1.687,0.508-2.35c0.339-0.66,0.823-1.169,1.454-1.527
	c0.633-0.358,1.377-0.535,2.232-0.535c0.71,0,1.353,0.151,1.931,0.454c0.575,0.305,1.055,0.739,1.438,1.313
	c0.381,0.571,0.643,1.247,0.784,2.027h-2c-0.097-0.382-0.251-0.712-0.461-0.996c-0.214-0.284-0.463-0.502-0.753-0.655
	c-0.289-0.15-0.603-0.226-0.938-0.226c-0.452,0-0.839,0.101-1.166,0.304c-0.331,0.203-0.581,0.49-0.761,0.863
	c-0.18,0.376-0.27,0.818-0.27,1.327v3.241c0,0.511,0.09,0.952,0.27,1.326c0.18,0.373,0.43,0.659,0.761,0.86
	c0.327,0.201,0.714,0.301,1.166,0.301c0.341,0,0.656-0.073,0.948-0.219c0.286-0.146,0.539-0.359,0.751-0.644
	c0.21-0.279,0.362-0.621,0.453-1.016h2c-0.146,0.783-0.413,1.459-0.792,2.029c-0.383,0.572-0.861,1.01-1.439,1.313
	c-0.576,0.302-1.217,0.454-1.921,0.454H236.252z"/>
<path fill="#4D4D4D" d="M244.551,52.402h1.942v11.816h-1.942V52.402z M245.585,57.447h6.72v1.863h-6.72V57.447z M251.141,52.402
	h1.944v11.816h-1.944V52.402z"/>
<path fill="#4D4D4D" d="M259.817,52.402h1.413l4.437,11.816h-2.089l-3.053-8.802l-3.059,8.802h-2.087L259.817,52.402z
	 M257.467,60.114h6.218v1.861h-6.218V60.114z"/>
<path fill="#4D4D4D" d="M266.175,52.402h8.501v1.86h-8.501V52.402z M269.46,53.367h1.933v10.852h-1.933V53.367z"/>
<path fill="#4D4D4D" d="M276.241,52.402h8.501v1.86h-8.501V52.402z M279.524,53.367h1.934v10.852h-1.934V53.367z"/>
<path fill="#4D4D4D" d="M287.033,52.402h1.942v11.816h-1.942V52.402z M287.838,52.402h6.948v1.86h-6.948V52.402z M287.838,57.424
	h6.054v1.853h-6.054V57.424z M287.838,62.355h6.948v1.863h-6.948V62.355z"/>
<path fill="#4D4D4D" d="M297.815,52.402h1.94v11.816h-1.94V52.402z M298.725,62.355h6.842v1.863h-6.842V62.355z"/>
<path fill="#4D4D4D" d="M314.283,52.402h1.942v11.816h-1.942V52.402z M315.193,62.355h6.842v1.863h-6.842V62.355z"/>
<path fill="#4D4D4D" d="M326.103,63.799c-0.637-0.36-1.134-0.87-1.485-1.527c-0.353-0.659-0.527-1.422-0.527-2.288v-3.35
	c0-0.864,0.175-1.628,0.527-2.287c0.352-0.656,0.849-1.167,1.485-1.527c0.641-0.36,1.381-0.539,2.22-0.539
	c0.841,0,1.578,0.179,2.22,0.539c0.64,0.36,1.134,0.871,1.485,1.527c0.354,0.659,0.527,1.423,0.527,2.287v3.35
	c0,0.866-0.173,1.629-0.527,2.288c-0.352,0.657-0.846,1.167-1.485,1.527c-0.642,0.36-1.379,0.54-2.22,0.54
	C327.483,64.339,326.743,64.159,326.103,63.799 M329.498,62.12c0.338-0.195,0.598-0.472,0.783-0.832
	c0.186-0.362,0.276-0.776,0.276-1.247V56.58c0-0.473-0.091-0.889-0.276-1.25c-0.186-0.36-0.445-0.637-0.783-0.832
	c-0.339-0.195-0.73-0.293-1.176-0.293c-0.443,0-0.835,0.098-1.174,0.293c-0.337,0.195-0.601,0.472-0.786,0.832
	c-0.182,0.361-0.276,0.777-0.276,1.25v3.461c0,0.471,0.095,0.885,0.276,1.247c0.186,0.36,0.449,0.637,0.786,0.832
	c0.339,0.195,0.73,0.293,1.174,0.293C328.768,62.413,329.159,62.315,329.498,62.12"/>
<path fill="#4D4D4D" d="M338.719,52.402h1.415l4.438,11.816h-2.09l-3.055-8.802l-3.056,8.802h-2.089L338.719,52.402z
	 M336.371,60.114h6.218v1.861h-6.218V60.114z"/>
<polygon fill="#4D4D4D" points="347.026,52.402 349.142,52.402 354.229,61.495 354.033,61.706 354.033,52.402 355.92,52.402 
	355.92,64.208 353.79,64.208 348.719,55.256 348.914,55.045 348.914,64.208 347.026,64.208 "/>
<path fill="#4D4D4D" d="M362.294,64.339c0,0-0.263-0.055-0.785-0.166c-0.523-0.111-1.012-0.275-1.471-0.493
	c-0.459-0.217-0.877-0.485-1.255-0.803l1.03-1.551c0.457,0.382,0.967,0.676,1.533,0.872c0.563,0.197,1.167,0.296,1.8,0.296
	c0.789,0,1.404-0.141,1.842-0.421c0.433-0.284,0.652-0.682,0.652-1.195v-0.009c0-0.363-0.097-0.652-0.292-0.866
	c-0.194-0.214-0.449-0.37-0.766-0.469c-0.313-0.104-0.717-0.195-1.208-0.282c-0.018-0.006-0.032-0.007-0.051-0.007
	c-0.016,0-0.031-0.002-0.048-0.008l-0.146-0.025c-0.792-0.131-1.441-0.285-1.953-0.464c-0.51-0.178-0.941-0.498-1.297-0.958
	c-0.357-0.461-0.538-1.114-0.538-1.96v-0.007c0-0.748,0.169-1.388,0.505-1.92c0.334-0.531,0.82-0.935,1.463-1.209
	c0.637-0.276,1.407-0.414,2.307-0.414c0.422,0,0.846,0.047,1.272,0.143c0.424,0.094,0.844,0.231,1.251,0.413
	c0.41,0.182,0.806,0.407,1.191,0.678l-0.944,1.602c-0.453-0.324-0.917-0.571-1.39-0.738c-0.471-0.17-0.932-0.252-1.381-0.252
	c-0.747,0-1.325,0.135-1.734,0.409s-0.613,0.659-0.613,1.157v0.008c0,0.376,0.105,0.671,0.317,0.888
	c0.21,0.219,0.475,0.372,0.791,0.475c0.315,0.101,0.761,0.209,1.328,0.321c0.021,0.006,0.043,0.01,0.063,0.012
	c0.019,0.002,0.039,0.008,0.06,0.014c0.027,0.006,0.058,0.012,0.089,0.016c0.033,0.006,0.064,0.01,0.09,0.016
	c0.733,0.146,1.344,0.324,1.835,0.528c0.487,0.207,0.899,0.538,1.229,0.99c0.33,0.458,0.495,1.077,0.495,1.862v0.016
	c0,0.736-0.174,1.368-0.519,1.894c-0.347,0.526-0.851,0.926-1.514,1.2c-0.659,0.272-1.456,0.409-2.388,0.409H362.294z"/>
<path fill="#CC924B" d="M297.589,24.483c0.275,0.042,0.809-0.008,1.6-0.155c2.743-0.525,5.899-0.802,9.462-0.831
	c0.409,0,0.657-0.095,0.746-0.286c0.088-0.189,0.057-0.488-0.089-0.898c-0.146-0.379-1.578-0.496-4.293-0.351
	c-2.776,0.147-5.245,0.482-7.405,1.009c-0.555,0.117-0.745,0.453-0.57,1.008C297.126,24.271,297.311,24.439,297.589,24.483"/>
<path fill="#CC924B" d="M301.729,32.435c0.174-0.03,0.219-0.329,0.131-0.899c-0.088-0.568-0.233-0.898-0.438-0.985
	c-0.351-0.146-1.41,0.051-3.178,0.591c-1.767,0.54-2.709,0.913-2.825,1.117c-0.147,0.527-0.116,0.892,0.088,1.097
	C297.901,32.889,299.976,32.582,301.729,32.435"/>
<path fill="#CC924B" d="M301.817,34.845c-0.615-0.175-1.856-0.131-3.725,0.131c-1.871,0.263-2.821,0.527-2.851,0.788
	c-0.027,0.556-0.13,1.067-0.306,1.536c-0.06,0.174-0.051,0.298,0.021,0.372c0.072,0.073,0.401,0.035,0.986-0.111
	c0.671-0.203,2.409-0.51,5.214-0.919c0.321-0.058,0.577-0.358,0.768-0.898C302.115,35.203,302.079,34.902,301.817,34.845"/>
<path fill="#CC924B" d="M288.36,11.488c-0.003,0.012-0.008,0.023-0.011,0.034c0.028-0.008,0.055-0.017,0.083-0.024
	C288.407,11.495,288.389,11.495,288.36,11.488"/>
<path fill="#CC924B" d="M323.962,27.876c0.146-0.593-0.201-0.497-0.188-0.942c0.628-1.627-0.617-3.306,0.001-4.708
	c-0.027-0.405-0.67-0.981-0.38-1.696c-0.332-0.419-0.867-0.637-0.939-1.319c-0.233-0.609,0.608-0.144,0.377-0.753
	c-0.162-0.31-0.313-0.633-0.466-0.96c-0.129,0.175-0.316,0.362-0.57,0.564c-0.817,0.644-1.401,1.374-1.753,2.192
	c-0.117,0.291-0.444,0.642-0.985,1.051c-0.54,0.409-0.942,0.598-1.204,0.569c-0.556-0.088-0.746-0.556-0.572-1.402
	c0.178-0.847,0.029-1.475-0.436-1.884c-0.468-0.409-1.768-0.701-3.901-0.876c-3.065,0-4.804-0.014-5.215-0.043
	c-2.774-0.176-5.373-0.102-7.797,0.219c-1.9,0.263-4.09,0.745-6.573,1.445c-0.818,0.234-1.344,0.454-1.578,0.658
	c-0.175,0.146-0.277,0.409-0.307,0.789c-0.059,0.906-0.496,1.752-1.313,2.54c-0.731,0.731-1.359,1.068-1.885,1.008
	c-0.438-0.028-0.688-0.35-0.745-0.963c-0.058-0.527,0.03-1.109,0.262-1.752c0.47-1.343,0.455-2.396-0.042-3.155
	c-0.351-0.526-0.409-0.957-0.176-1.293c0.232-0.336,0.584-0.459,1.052-0.372c0.702,0.117,1.506,0.059,2.409-0.176
	c1.052-0.263,1.93-0.394,2.63-0.394c0.936,0,1.68-0.072,2.233-0.219c1.111-0.292,2.295-0.466,3.55-0.526
	c1.198-0.058,2.037-0.343,2.519-0.854c0.483-0.51,0.768-1.424,0.856-2.738c0.027-0.35,0.145-0.716,0.351-1.096
	c0.203-0.379,0.423-0.554,0.656-0.526c0.175,0,0.424,0.381,0.744,1.14c0.352,0.848,0.526,1.709,0.526,2.586
	c0.06,1.022,1.242,1.577,3.55,1.664c3.242,0,5.797,0.161,7.667,0.482c1.987,0.322,3.434,0.402,4.338,0.242
	c0.475-0.084,0.863-0.096,1.17-0.041c-0.267-0.56-0.547-1.12-0.878-1.646c0.048-0.546-0.249-0.964-0.565-1.318
	c-0.171-0.476-0.197-0.875-0.565-1.131c-0.098-0.709-0.834-0.877-1.13-1.507c-0.219-0.271-0.812-0.169-0.755-0.564
	c-0.12-0.151-0.592-0.067-0.754-0.189c0.152-1.441-3.423-2.118-3.954-3.389c-1.794-0.231-2.803-0.991-4.709-0.942
	c-0.708-0.703-1.127-0.263-1.883-0.565c-4.374-0.434-8.996,0.132-12.998,1.884c-0.25,0.271-0.498,0.556-0.942,0.565
	c-0.282,0.284-0.337,0.794-0.753,0.941c-1.138,0.57-2.005,1.857-3.015,2.45c-0.096,0.208-0.103,0.417-0.207,0.521
	c0.229-0.022,0.475-0.014,0.741,0.047c0.818,0.205,1.973,0.263,3.462,0.175c4.266-0.145,6.718,0,7.36,0.439
	c0.381,0.379,0.513,0.656,0.396,0.832c-0.178,0.205-0.761,0.367-1.755,0.483c-0.582,0.06-1.664,0.249-3.241,0.57
	c-0.556,0.117-1.286,0.189-2.191,0.219c-1.256,0.058-2.526,0.322-3.813,0.788c-0.409,0.147-0.898-0.007-1.467-0.459
	c-0.569-0.453-0.869-0.839-0.898-1.163c-0.008-0.083,0.001-0.155,0-0.234c-0.542,0.599-1.072,1.201-1.025,2.115
	c-0.383,0.055-0.37,0.509-0.752,0.564c0.121,1.702-1.403,2.516-0.943,3.956c-0.8,0.61-0.169,1.672-0.94,2.45
	c0.765,0.803,0.021,1.716,0,2.638c0.153,1.176,0.173,2.556,0.377,3.766c-0.006,0.024-0.135,0.229-0.177,0.214
	c0.389,0.776,0.363,0.791,0.177,1.67c0.698,0.878,0.083,0.906,0.187,1.696c0.521,0.548,0.885,1.25,0.754,2.448
	c0.369,0.07-0.138,0.5,0.566,0.376c-0.09,0.709,0.467,0.243,0.564,1.132c0.365-0.083,0.115,0.191,0.188,0.376
	c0.573,0.491,0.901,1.558,1.507,1.882c0.064,0.054-0.058,0.32,0,0.377c1.993,1.025,0.443,2.148,4.146,3.391
	c-0.204,1.022,1.777,1.44,2.447,1.317c0.013,0.505,0.735,0.42,0.753,0.756c0.026,0.482,0.538,0.199,0.565,0.565
	c0.577,0.137,0.556-0.326,1.132-0.189c0.456,0.512,1.267,0.242,1.883,0.377c1.261,0.737,2.923,0.296,4.146,0.942
	c0.607-0.787,1.844-0.064,2.636-0.565c0.146,0,0.184,0.188,0.188,0.19c1.676,0.228,2.026-0.982,3.391-0.755
	c0.173-0.008,0.138-0.178,0.188-0.189c0.962,0.016,1.399-0.602,2.261-0.753c0.218-0.51,0.858-0.306,1.129-0.563
	c0.533-0.157,0.491,0.264,0.942,0.185c0.561-0.558,1.351-0.715,1.694-1.317c0.478-0.226,1.173-0.21,1.509-0.753
	c0.433-0.529,1.033-0.938,1.695-1.317c0.475-0.594,0.636-1.5,1.506-1.697c-0.071-0.635,0.328-0.803,0.566-1.129
	c0.349-0.279,0.281-0.974,0.941-0.942v-1.319c0.76-0.816,1.396-2.089,1.319-3.201c0.306-0.237,0.53-0.799,0.752-0.943
	c0.24-0.583-0.102-0.704,0.189-0.941c0.055-0.045-0.032-0.309,0-0.376C324.344,29.583,323.719,28.128,323.962,27.876
	 M307.862,11.797c0.234-0.116,0.569-0.145,1.008-0.088c0.76,0.088,1.489,0.088,2.19,0c0.788-0.117,1.753-0.131,2.893-0.044
	c1.052,0.06,2.118,0.03,3.198-0.087c0.848-0.117,1.482-0.073,1.906,0.131c0.424,0.206,0.619,0.555,0.592,1.051
	c-0.059,1.314-1.096,1.783-3.111,1.404c-2.688-0.467-4.907-0.542-6.659-0.22c-1.082,0.264-1.827-0.043-2.236-0.92
	C307.32,12.441,307.396,12.031,307.862,11.797 M293.051,21.217c0.147-0.32,0.483-0.379,1.01-0.174
	c0.584,0.234,1.257,0.189,2.016-0.132c1.781-0.701,4.016-1.154,6.705-1.358c2.743-0.204,5.081-0.102,7.01,0.307
	c0.904,0.204,1.854,0.204,2.847,0c0.644-0.117,1.081,0.037,1.315,0.459c0.233,0.424,0.045,0.898-0.568,1.424
	c-0.763,0.702-1.229,1.49-1.403,2.366c-0.088,0.466-0.271,0.839-0.549,1.117c-0.277,0.278-0.708,0.504-1.293,0.679
	c-0.875,0.263-1.971,0.249-3.285-0.044c-1.401-0.32-3.462-0.292-6.177,0.088c-2.366,0.321-4.09,0.716-5.171,1.183
	c-0.789,0.321-1.381,0.328-1.774,0.021s-0.446-0.707-0.153-1.205c0.583-1.052,0.568-2.06-0.045-3.023
	C293.036,22.168,292.877,21.597,293.051,21.217 M316.737,31.186c-0.688,0.628-1.208,1.628-1.557,3.001
	c-0.322,1.286-0.367,2.425-0.132,3.418c0.144,0.644,0.177,1.102,0.087,1.38c-0.087,0.279-0.292,0.431-0.613,0.46
	c-1.111,0.06-3.214-0.131-6.311-0.569c-2.717-0.438-5.607-0.364-8.675,0.22c-2.161,0.438-4.118,0.686-5.871,0.744
	c-0.498,0.031-1.125,0.232-1.885,0.612c-0.643,0.323-1.036,0.236-1.182-0.262c-0.177-0.582,0.058-1.417,0.699-2.499
	c0.585-0.993,0.936-1.809,1.054-2.453c0.174-0.993-0.046-1.854-0.659-2.586c-0.816-1.05-1.051-1.875-0.7-2.475
	c0.352-0.598,0.817-0.838,1.402-0.724c1.139,0.41,2.643,0.285,4.513-0.372c1.869-0.657,4.571-1.087,8.106-1.292
	c3.708-0.204,6.543-0.044,8.501,0.482c1.021,0.264,1.855,0.38,2.497,0.351c0.848-0.06,1.351,0.197,1.512,0.767
	C317.684,29.959,317.42,30.558,316.737,31.186"/>
<path fill="#CC924B" d="M312.025,35.064c-3.126-0.379-5.375-0.424-6.747-0.131c-0.117,0.029-0.177,0.248-0.177,0.657
	c0,0.41,0.06,0.628,0.177,0.656c2.103,0.438,4.365,0.426,6.79-0.043c0.264-0.058,0.41-0.254,0.439-0.592
	C312.536,35.275,312.376,35.094,312.025,35.064"/>
<path fill="#CC924B" d="M310.842,30.375c-1.725-0.291-3.228-0.377-4.513-0.261c-0.614,0.058-1.036,0.422-1.27,1.096
	c-0.177,0.496-0.119,0.815,0.173,0.961c0.178,0.088,0.497,0.119,0.964,0.088c1.255-0.115,2.572-0.057,3.943,0.176
	c0.878,0.147,1.638,0.101,2.279-0.132c0.643-0.232,0.95-0.597,0.921-1.093C313.31,30.944,312.479,30.667,310.842,30.375"/>
<path fill="#CC924B" d="M81.72,32.686h19.612V17.231H79.857v-6.268h49.344v6.268h-21.724v15.455h19.985v6.145h-19.985v17.812h22.965
	v6.209H78.368v-6.209h22.964V38.83H81.72V32.686z M115.358,41.188h6.145c1.406,4.387,2.461,8.711,3.167,12.973h-6.146
	C117.904,50.396,116.848,46.073,115.358,41.188"/>
<path fill="#CC924B" d="M160.358,8.729h6.393v48.224h11.915c1.904-0.041,2.876-1.198,2.919-3.477V13.941h6.331v41.09
	c-0.086,4.964-2.401,7.652-6.95,8.066h-33.516c-4.718-0.746-7.407-3.682-8.069-8.814V13.879h6.082l-0.062,39.227
	c0.415,2.356,1.531,3.64,3.352,3.847h11.607V8.729z"/>
<path fill-rule="evenodd" clip-rule="evenodd" fill="#CC924B" d="M62.458,33.269c0.125,1.105,0.195,2.227,0.195,3.364
	c0,16.479-13.359,29.838-29.837,29.838c-16.479,0-29.837-13.359-29.837-29.838c0-4.45,0.982-8.667,2.728-12.461l-1.633-0.261
	C2.35,27.8,1.383,32.104,1.383,36.633c0,17.359,14.073,31.434,31.433,31.434c17.359,0,31.432-14.074,31.432-31.434
	c0-1.047-0.054-2.081-0.153-3.103L62.458,33.269z"/>
<path fill-rule="evenodd" clip-rule="evenodd" fill="#CC924B" d="M7.556,30.698c0,0,4.03-2.084,10.156-2.076
	c5.595,0.309,11.539,2.567,17.046,4.669c2.339,0.889,4.609,1.747,6.774,2.432c7.344,2.326,13.026,1.699,16.543,0.743
	c-1.798,0.926-8.823,3.945-19.548,0.559C29.202,34.073,17.345,27.514,7.556,30.698"/>
<path fill-rule="evenodd" clip-rule="evenodd" fill="#CC924B" d="M11.247,38.093c0,0,3.584-2.084,9.034-2.075
	c4.977,0.309,10.263,2.564,15.162,4.669c2.08,0.891,4.1,1.748,6.023,2.434c6.534,2.324,11.588,1.698,14.716,0.741
	c-1.598,0.926-7.848,3.946-17.388,0.56C30.5,41.469,19.954,34.908,11.247,38.093"/>
<path fill-rule="evenodd" clip-rule="evenodd" fill="#CC924B" d="M13.141,28.373c0,0,8.92-12.147,11.973-8.847
	c3.054,3.29,2.879,4.457,6.417,1.12c3.537-3.338,4.32-6.677,5.798-6.445c1.479,0.231,6.417,12.271,7.538,10.41
	c1.13-1.862,1.952-5.037,3.236-3.878c1.287,1.167,8.08,15.599,8.08,15.599c-1.043-1.755-1.208-2.055-2.523-3.531
	c-0.995-1.109-3.537-2.624-3.537-2.624s2.174,0.645,2.252,0.145l-0.185-0.281c-0.83-0.722-4.088-2.15-4.088-2.15
	s0.755-0.01,1.393-0.214c0.646-0.211,0.735-0.278-0.251-0.906c-0.464-0.299-0.338-0.56-0.088-0.763
	c-0.665-0.752-1.236-1.225-1.594-1.225c-1.132,0.01-2.165,6.86-5.663,0.424c-2.223-4.08-4.861-6.29-6.069-5.701
	c-1.208,0.578,2.097,2.904,2.097,2.904s-8.746,0.077-6.842,0.742c1.903,0.656,4.079,0.811,4.079,0.811s-1.459,0.164-3.122,0.492
	c-2.194,0.434-5.924,2.402-7.489,2.21c-1.392-0.174-1.836-1.274-0.348-1.958c2.6-1.206,0.965-2.643-0.309-2.142
	c-1.285,0.511-1.749,1.128-1.749,1.128s2.619-3.588,0.87-2.972C21.056,21.426,15.461,26.317,13.141,28.373"/>
<path fill="#CC924B" d="M22.103,7.715c-0.536-0.133-1.028-0.367-1.471-0.666c-0.924-0.624-1.616-1.561-1.906-2.667
	c-0.308,1.175-1.069,2.161-2.078,2.779c-0.398,0.245-0.833,0.438-1.299,0.554c0.466,0.117,0.901,0.309,1.299,0.554
	c1.009,0.62,1.77,1.605,2.078,2.781c0.291-1.108,0.982-2.046,1.906-2.669C21.075,8.083,21.567,7.849,22.103,7.715"/>
<path fill="#CC924B" d="M15.813,15.766c-1.143-0.284-2.195-0.783-3.141-1.423c-1.973-1.332-3.451-3.333-4.073-5.698
	c-0.66,2.509-2.284,4.617-4.441,5.939c-0.853,0.523-1.778,0.934-2.775,1.182c0.997,0.249,1.922,0.661,2.775,1.184
	c2.157,1.322,3.781,3.43,4.441,5.941c0.622-2.366,2.1-4.368,4.073-5.701C13.617,16.549,14.67,16.05,15.813,15.766"/>
</svg>
